{
  "chapters": [],
  "format": {
    "bit_rate": "5188433",
    "duration": "1.044898",
    "filename": "/workspaces/typed-ffmpeg/src/ffmpeg/tests/test_probe/test_data/34/mp3-with-cover.mp3",
    "format_long_name": "MP2/3 (MPEG audio layer 2/3)",
    "format_name": "mp3",
    "nb_programs": 0,
    "nb_streams": 2,
    "probe_score": 51,
    "size": "677673",
    "start_time": "0.025056",
    "tags": {
      "comment": "",
      "date": "2018",
      "encoder": "Lavf60.3.100"
    }
  },
  "packets_and_frames": [
    {
      "codec_type": "video",
      "flags": "K__",
      "size": "660644",
      "stream_index": 1,
      "type": "packet"
    },
    {
      "coded_picture_number": 0,
      "color_range": "pc",
      "color_space": "gbr",
      "display_picture_number": 0,
      "height": 500,
      "interlaced_frame": 0,
      "key_frame": 1,
      "media_type": "video",
      "pict_type": "I",
      "pix_fmt": "rgb24",
      "pkt_size": "660644",
      "repeat_pict": 0,
      "sample_aspect_ratio": "1:1",
      "stream_index": 1,
      "top_field_first": 0,
      "type": "frame",
      "width": 888
    },
    {
      "codec_type": "audio",
      "dts": 0,
      "dts_time": "0.000000",
      "duration": 368640,
      "duration_time": "0.026122",
      "flags": "K__",
      "pos": "660955",
      "pts": 0,
      "pts_time": "0.000000",
      "side_data_list": [
        {
          "discard_padding": 0,
          "discard_reason": 0,
          "side_data_type": "Skip Samples",
          "skip_reason": 0,
          "skip_samples": 1105
        }
      ],
      "size": "417",
      "stream_index": 0,
      "type": "packet"
    },
    {
      "best_effort_timestamp": 353600,
      "best_effort_timestamp_time": "0.025057",
      "channel_layout": "stereo",
      "channels": 2,
      "duration": 15040,
      "duration_time": "0.001066",
      "key_frame": 1,
      "media_type": "audio",
      "nb_samples": 47,
      "pkt_dts": 353600,
      "pkt_dts_time": "0.025057",
      "pkt_duration": 15040,
      "pkt_duration_time": "0.001066",
      "pkt_pos": "660955",
      "pkt_size": "417",
      "pts": 353600,
      "pts_time": "0.025057",
      "sample_fmt": "fltp",
      "stream_index": 0,
      "type": "frame"
    },
    {
      "codec_type": "audio",
      "dts": 368640,
      "dts_time": "0.026122",
      "duration": 368640,
      "duration_time": "0.026122",
      "flags": "K__",
      "pos": "661372",
      "pts": 368640,
      "pts_time": "0.026122",
      "size": "418",
      "stream_index": 0,
      "type": "packet"
    },
    {
      "best_effort_timestamp": 368640,
      "best_effort_timestamp_time": "0.026122",
      "channel_layout": "stereo",
      "channels": 2,
      "duration": 368640,
      "duration_time": "0.026122",
      "key_frame": 1,
      "media_type": "audio",
      "nb_samples": 1152,
      "pkt_dts": 368640,
      "pkt_dts_time": "0.026122",
      "pkt_duration": 368640,
      "pkt_duration_time": "0.026122",
      "pkt_pos": "661372",
      "pkt_size": "418",
      "pts": 368640,
      "pts_time": "0.026122",
      "sample_fmt": "fltp",
      "stream_index": 0,
      "type": "frame"
    },
    {
      "codec_type": "audio",
      "dts": 737280,
      "dts_time": "0.052245",
      "duration": 368640,
      "duration_time": "0.026122",
      "flags": "K__",
      "pos": "661790",
      "pts": 737280,
      "pts_time": "0.052245",
      "size": "418",
      "stream_index": 0,
      "type": "packet"
    },
    {
      "best_effort_timestamp": 737280,
      "best_effort_timestamp_time": "0.052245",
      "channel_layout": "stereo",
      "channels": 2,
      "duration": 368640,
      "duration_time": "0.026122",
      "key_frame": 1,
      "media_type": "audio",
      "nb_samples": 1152,
      "pkt_dts": 737280,
      "pkt_dts_time": "0.052245",
      "pkt_duration": 368640,
      "pkt_duration_time": "0.026122",
      "pkt_pos": "661790",
      "pkt_size": "418",
      "pts": 737280,
      "pts_time": "0.052245",
      "sample_fmt": "fltp",
      "stream_index": 0,
      "type": "frame"
    },
    {
      "codec_type": "audio",
      "dts": 1105920,
      "dts_time": "0.078367",
      "duration": 368640,
      "duration_time": "0.026122",
      "flags": "K__",
      "pos": "662208",
      "pts": 1105920,
      "pts_time": "0.078367",
      "size": "418",
      "stream_index": 0,
      "type": "packet"
    },
    {
      "best_effort_timestamp": 1105920,
      "best_effort_timestamp_time": "0.078367",
      "channel_layout": "stereo",
      "channels": 2,
      "duration": 368640,
      "duration_time": "0.026122",
      "key_frame": 1,
      "media_type": "audio",
      "nb_samples": 1152,
      "pkt_dts": 1105920,
      "pkt_dts_time": "0.078367",
      "pkt_duration": 368640,
      "pkt_duration_time": "0.026122",
      "pkt_pos": "662208",
      "pkt_size": "418",
      "pts": 1105920,
      "pts_time": "0.078367",
      "sample_fmt": "fltp",
      "stream_index": 0,
      "type": "frame"
    },
    {
      "codec_type": "audio",
      "dts": 1474560,
      "dts_time": "0.104490",
      "duration": 368640,
      "duration_time": "0.026122",
      "flags": "K__",
      "pos": "662626",
      "pts": 1474560,
      "pts_time": "0.104490",
      "size": "418",
      "stream_index": 0,
      "type": "packet"
    },
    {
      "best_effort_timestamp": 1474560,
      "best_effort_timestamp_time": "0.104490",
      "channel_layout": "stereo",
      "channels": 2,
      "duration": 368640,
      "duration_time": "0.026122",
      "key_frame": 1,
      "media_type": "audio",
      "nb_samples": 1152,
      "pkt_dts": 1474560,
      "pkt_dts_time": "0.104490",
      "pkt_duration": 368640,
      "pkt_duration_time": "0.026122",
      "pkt_pos": "662626",
      "pkt_size": "418",
      "pts": 1474560,
      "pts_time": "0.104490",
      "sample_fmt": "fltp",
      "stream_index": 0,
      "type": "frame"
    },
    {
      "codec_type": "audio",
      "dts": 1843200,
      "dts_time": "0.130612",
      "duration": 368640,
      "duration_time": "0.026122",
      "flags": "K__",
      "pos": "663044",
      "pts": 1843200,
      "pts_time": "0.130612",
      "size": "418",
      "stream_index": 0,
      "type": "packet"
    },
    {
      "best_effort_timestamp": 1843200,
      "best_effort_timestamp_time": "0.130612",
      "channel_layout": "stereo",
      "channels": 2,
      "duration": 368640,
      "duration_time": "0.026122",
      "key_frame": 1,
      "media_type": "audio",
      "nb_samples": 1152,
      "pkt_dts": 1843200,
      "pkt_dts_time": "0.130612",
      "pkt_duration": 368640,
      "pkt_duration_time": "0.026122",
      "pkt_pos": "663044",
      "pkt_size": "418",
      "pts": 1843200,
      "pts_time": "0.130612",
      "sample_fmt": "fltp",
      "stream_index": 0,
      "type": "frame"
    },
    {
      "codec_type": "audio",
      "dts": 2211840,
      "dts_time": "0.156735",
      "duration": 368640,
      "duration_time": "0.026122",
      "flags": "K__",
      "pos": "663462",
      "pts": 2211840,
      "pts_time": "0.156735",
      "size": "418",
      "stream_index": 0,
      "type": "packet"
    },
    {
      "best_effort_timestamp": 2211840,
      "best_effort_timestamp_time": "0.156735",
      "channel_layout": "stereo",
      "channels": 2,
      "duration": 368640,
      "duration_time": "0.026122",
      "key_frame": 1,
      "media_type": "audio",
      "nb_samples": 1152,
      "pkt_dts": 2211840,
      "pkt_dts_time": "0.156735",
      "pkt_duration": 368640,
      "pkt_duration_time": "0.026122",
      "pkt_pos": "663462",
      "pkt_size": "418",
      "pts": 2211840,
      "pts_time": "0.156735",
      "sample_fmt": "fltp",
      "stream_index": 0,
      "type": "frame"
    },
    {
      "codec_type": "audio",
      "dts": 2580480,
      "dts_time": "0.182857",
      "duration": 368640,
      "duration_time": "0.026122",
      "flags": "K__",
      "pos": "663880",
      "pts": 2580480,
      "pts_time": "0.182857",
      "size": "418",
      "stream_index": 0,
      "type": "packet"
    },
    {
      "best_effort_timestamp": 2580480,
      "best_effort_timestamp_time": "0.182857",
      "channel_layout": "stereo",
      "channels": 2,
      "duration": 368640,
      "duration_time": "0.026122",
      "key_frame": 1,
      "media_type": "audio",
      "nb_samples": 1152,
      "pkt_dts": 2580480,
      "pkt_dts_time": "0.182857",
      "pkt_duration": 368640,
      "pkt_duration_time": "0.026122",
      "pkt_pos": "663880",
      "pkt_size": "418",
      "pts": 2580480,
      "pts_time": "0.182857",
      "sample_fmt": "fltp",
      "stream_index": 0,
      "type": "frame"
    },
    {
      "codec_type": "audio",
      "dts": 2949120,
      "dts_time": "0.208980",
      "duration": 368640,
      "duration_time": "0.026122",
      "flags": "K__",
      "pos": "664298",
      "pts": 2949120,
      "pts_time": "0.208980",
      "size": "418",
      "stream_index": 0,
      "type": "packet"
    },
    {
      "best_effort_timestamp": 2949120,
      "best_effort_timestamp_time": "0.208980",
      "channel_layout": "stereo",
      "channels": 2,
      "duration": 368640,
      "duration_time": "0.026122",
      "key_frame": 1,
      "media_type": "audio",
      "nb_samples": 1152,
      "pkt_dts": 2949120,
      "pkt_dts_time": "0.208980",
      "pkt_duration": 368640,
      "pkt_duration_time": "0.026122",
      "pkt_pos": "664298",
      "pkt_size": "418",
      "pts": 2949120,
      "pts_time": "0.208980",
      "sample_fmt": "fltp",
      "stream_index": 0,
      "type": "frame"
    },
    {
      "codec_type": "audio",
      "dts": 3317760,
      "dts_time": "0.235102",
      "duration": 368640,
      "duration_time": "0.026122",
      "flags": "K__",
      "pos": "664716",
      "pts": 3317760,
      "pts_time": "0.235102",
      "size": "418",
      "stream_index": 0,
      "type": "packet"
    },
    {
      "best_effort_timestamp": 3317760,
      "best_effort_timestamp_time": "0.235102",
      "channel_layout": "stereo",
      "channels": 2,
      "duration": 368640,
      "duration_time": "0.026122",
      "key_frame": 1,
      "media_type": "audio",
      "nb_samples": 1152,
      "pkt_dts": 3317760,
      "pkt_dts_time": "0.235102",
      "pkt_duration": 368640,
      "pkt_duration_time": "0.026122",
      "pkt_pos": "664716",
      "pkt_size": "418",
      "pts": 3317760,
      "pts_time": "0.235102",
      "sample_fmt": "fltp",
      "stream_index": 0,
      "type": "frame"
    },
    {
      "codec_type": "audio",
      "dts": 3686400,
      "dts_time": "0.261224",
      "duration": 368640,
      "duration_time": "0.026122",
      "flags": "K__",
      "pos": "665134",
      "pts": 3686400,
      "pts_time": "0.261224",
      "size": "418",
      "stream_index": 0,
      "type": "packet"
    },
    {
      "best_effort_timestamp": 3686400,
      "best_effort_timestamp_time": "0.261224",
      "channel_layout": "stereo",
      "channels": 2,
      "duration": 368640,
      "duration_time": "0.026122",
      "key_frame": 1,
      "media_type": "audio",
      "nb_samples": 1152,
      "pkt_dts": 3686400,
      "pkt_dts_time": "0.261224",
      "pkt_duration": 368640,
      "pkt_duration_time": "0.026122",
      "pkt_pos": "665134",
      "pkt_size": "418",
      "pts": 3686400,
      "pts_time": "0.261224",
      "sample_fmt": "fltp",
      "stream_index": 0,
      "type": "frame"
    },
    {
      "codec_type": "audio",
      "dts": 4055040,
      "dts_time": "0.287347",
      "duration": 368640,
      "duration_time": "0.026122",
      "flags": "K__",
      "pos": "665552",
      "pts": 4055040,
      "pts_time": "0.287347",
      "size": "418",
      "stream_index": 0,
      "type": "packet"
    },
    {
      "best_effort_timestamp": 4055040,
      "best_effort_timestamp_time": "0.287347",
      "channel_layout": "stereo",
      "channels": 2,
      "duration": 368640,
      "duration_time": "0.026122",
      "key_frame": 1,
      "media_type": "audio",
      "nb_samples": 1152,
      "pkt_dts": 4055040,
      "pkt_dts_time": "0.287347",
      "pkt_duration": 368640,
      "pkt_duration_time": "0.026122",
      "pkt_pos": "665552",
      "pkt_size": "418",
      "pts": 4055040,
      "pts_time": "0.287347",
      "sample_fmt": "fltp",
      "stream_index": 0,
      "type": "frame"
    },
    {
      "codec_type": "audio",
      "dts": 4423680,
      "dts_time": "0.313469",
      "duration": 368640,
      "duration_time": "0.026122",
      "flags": "K__",
      "pos": "665970",
      "pts": 4423680,
      "pts_time": "0.313469",
      "size": "418",
      "stream_index": 0,
      "type": "packet"
    },
    {
      "best_effort_timestamp": 4423680,
      "best_effort_timestamp_time": "0.313469",
      "channel_layout": "stereo",
      "channels": 2,
      "duration": 368640,
      "duration_time": "0.026122",
      "key_frame": 1,
      "media_type": "audio",
      "nb_samples": 1152,
      "pkt_dts": 4423680,
      "pkt_dts_time": "0.313469",
      "pkt_duration": 368640,
      "pkt_duration_time": "0.026122",
      "pkt_pos": "665970",
      "pkt_size": "418",
      "pts": 4423680,
      "pts_time": "0.313469",
      "sample_fmt": "fltp",
      "stream_index": 0,
      "type": "frame"
    },
    {
      "codec_type": "audio",
      "dts": 4792320,
      "dts_time": "0.339592",
      "duration": 368640,
      "duration_time": "0.026122",
      "flags": "K__",
      "pos": "666388",
      "pts": 4792320,
      "pts_time": "0.339592",
      "size": "418",
      "stream_index": 0,
      "type": "packet"
    },
    {
      "best_effort_timestamp": 4792320,
      "best_effort_timestamp_time": "0.339592",
      "channel_layout": "stereo",
      "channels": 2,
      "duration": 368640,
      "duration_time": "0.026122",
      "key_frame": 1,
      "media_type": "audio",
      "nb_samples": 1152,
      "pkt_dts": 4792320,
      "pkt_dts_time": "0.339592",
      "pkt_duration": 368640,
      "pkt_duration_time": "0.026122",
      "pkt_pos": "666388",
      "pkt_size": "418",
      "pts": 4792320,
      "pts_time": "0.339592",
      "sample_fmt": "fltp",
      "stream_index": 0,
      "type": "frame"
    },
    {
      "codec_type": "audio",
      "dts": 5160960,
      "dts_time": "0.365714",
      "duration": 368640,
      "duration_time": "0.026122",
      "flags": "K__",
      "pos": "666806",
      "pts": 5160960,
      "pts_time": "0.365714",
      "size": "418",
      "stream_index": 0,
      "type": "packet"
    },
    {
      "best_effort_timestamp": 5160960,
      "best_effort_timestamp_time": "0.365714",
      "channel_layout": "stereo",
      "channels": 2,
      "duration": 368640,
      "duration_time": "0.026122",
      "key_frame": 1,
      "media_type": "audio",
      "nb_samples": 1152,
      "pkt_dts": 5160960,
      "pkt_dts_time": "0.365714",
      "pkt_duration": 368640,
      "pkt_duration_time": "0.026122",
      "pkt_pos": "666806",
      "pkt_size": "418",
      "pts": 5160960,
      "pts_time": "0.365714",
      "sample_fmt": "fltp",
      "stream_index": 0,
      "type": "frame"
    },
    {
      "codec_type": "audio",
      "dts": 5529600,
      "dts_time": "0.391837",
      "duration": 368640,
      "duration_time": "0.026122",
      "flags": "K__",
      "pos": "667224",
      "pts": 5529600,
      "pts_time": "0.391837",
      "size": "418",
      "stream_index": 0,
      "type": "packet"
    },
    {
      "best_effort_timestamp": 5529600,
      "best_effort_timestamp_time": "0.391837",
      "channel_layout": "stereo",
      "channels": 2,
      "duration": 368640,
      "duration_time": "0.026122",
      "key_frame": 1,
      "media_type": "audio",
      "nb_samples": 1152,
      "pkt_dts": 5529600,
      "pkt_dts_time": "0.391837",
      "pkt_duration": 368640,
      "pkt_duration_time": "0.026122",
      "pkt_pos": "667224",
      "pkt_size": "418",
      "pts": 5529600,
      "pts_time": "0.391837",
      "sample_fmt": "fltp",
      "stream_index": 0,
      "type": "frame"
    },
    {
      "codec_type": "audio",
      "dts": 5898240,
      "dts_time": "0.417959",
      "duration": 368640,
      "duration_time": "0.026122",
      "flags": "K__",
      "pos": "667642",
      "pts": 5898240,
      "pts_time": "0.417959",
      "size": "418",
      "stream_index": 0,
      "type": "packet"
    },
    {
      "best_effort_timestamp": 5898240,
      "best_effort_timestamp_time": "0.417959",
      "channel_layout": "stereo",
      "channels": 2,
      "duration": 368640,
      "duration_time": "0.026122",
      "key_frame": 1,
      "media_type": "audio",
      "nb_samples": 1152,
      "pkt_dts": 5898240,
      "pkt_dts_time": "0.417959",
      "pkt_duration": 368640,
      "pkt_duration_time": "0.026122",
      "pkt_pos": "667642",
      "pkt_size": "418",
      "pts": 5898240,
      "pts_time": "0.417959",
      "sample_fmt": "fltp",
      "stream_index": 0,
      "type": "frame"
    },
    {
      "codec_type": "audio",
      "dts": 6266880,
      "dts_time": "0.444082",
      "duration": 368640,
      "duration_time": "0.026122",
      "flags": "K__",
      "pos": "668060",
      "pts": 6266880,
      "pts_time": "0.444082",
      "size": "418",
      "stream_index": 0,
      "type": "packet"
    },
    {
      "best_effort_timestamp": 6266880,
      "best_effort_timestamp_time": "0.444082",
      "channel_layout": "stereo",
      "channels": 2,
      "duration": 368640,
      "duration_time": "0.026122",
      "key_frame": 1,
      "media_type": "audio",
      "nb_samples": 1152,
      "pkt_dts": 6266880,
      "pkt_dts_time": "0.444082",
      "pkt_duration": 368640,
      "pkt_duration_time": "0.026122",
      "pkt_pos": "668060",
      "pkt_size": "418",
      "pts": 6266880,
      "pts_time": "0.444082",
      "sample_fmt": "fltp",
      "stream_index": 0,
      "type": "frame"
    },
    {
      "codec_type": "audio",
      "dts": 6635520,
      "dts_time": "0.470204",
      "duration": 368640,
      "duration_time": "0.026122",
      "flags": "K__",
      "pos": "668478",
      "pts": 6635520,
      "pts_time": "0.470204",
      "size": "418",
      "stream_index": 0,
      "type": "packet"
    },
    {
      "best_effort_timestamp": 6635520,
      "best_effort_timestamp_time": "0.470204",
      "channel_layout": "stereo",
      "channels": 2,
      "duration": 368640,
      "duration_time": "0.026122",
      "key_frame": 1,
      "media_type": "audio",
      "nb_samples": 1152,
      "pkt_dts": 6635520,
      "pkt_dts_time": "0.470204",
      "pkt_duration": 368640,
      "pkt_duration_time": "0.026122",
      "pkt_pos": "668478",
      "pkt_size": "418",
      "pts": 6635520,
      "pts_time": "0.470204",
      "sample_fmt": "fltp",
      "stream_index": 0,
      "type": "frame"
    },
    {
      "codec_type": "audio",
      "dts": 7004160,
      "dts_time": "0.496327",
      "duration": 368640,
      "duration_time": "0.026122",
      "flags": "K__",
      "pos": "668896",
      "pts": 7004160,
      "pts_time": "0.496327",
      "size": "418",
      "stream_index": 0,
      "type": "packet"
    },
    {
      "best_effort_timestamp": 7004160,
      "best_effort_timestamp_time": "0.496327",
      "channel_layout": "stereo",
      "channels": 2,
      "duration": 368640,
      "duration_time": "0.026122",
      "key_frame": 1,
      "media_type": "audio",
      "nb_samples": 1152,
      "pkt_dts": 7004160,
      "pkt_dts_time": "0.496327",
      "pkt_duration": 368640,
      "pkt_duration_time": "0.026122",
      "pkt_pos": "668896",
      "pkt_size": "418",
      "pts": 7004160,
      "pts_time": "0.496327",
      "sample_fmt": "fltp",
      "stream_index": 0,
      "type": "frame"
    },
    {
      "codec_type": "audio",
      "dts": 7372800,
      "dts_time": "0.522449",
      "duration": 368640,
      "duration_time": "0.026122",
      "flags": "K__",
      "pos": "669314",
      "pts": 7372800,
      "pts_time": "0.522449",
      "size": "418",
      "stream_index": 0,
      "type": "packet"
    },
    {
      "best_effort_timestamp": 7372800,
      "best_effort_timestamp_time": "0.522449",
      "channel_layout": "stereo",
      "channels": 2,
      "duration": 368640,
      "duration_time": "0.026122",
      "key_frame": 1,
      "media_type": "audio",
      "nb_samples": 1152,
      "pkt_dts": 7372800,
      "pkt_dts_time": "0.522449",
      "pkt_duration": 368640,
      "pkt_duration_time": "0.026122",
      "pkt_pos": "669314",
      "pkt_size": "418",
      "pts": 7372800,
      "pts_time": "0.522449",
      "sample_fmt": "fltp",
      "stream_index": 0,
      "type": "frame"
    },
    {
      "codec_type": "audio",
      "dts": 7741440,
      "dts_time": "0.548571",
      "duration": 368640,
      "duration_time": "0.026122",
      "flags": "K__",
      "pos": "669732",
      "pts": 7741440,
      "pts_time": "0.548571",
      "size": "418",
      "stream_index": 0,
      "type": "packet"
    },
    {
      "best_effort_timestamp": 7741440,
      "best_effort_timestamp_time": "0.548571",
      "channel_layout": "stereo",
      "channels": 2,
      "duration": 368640,
      "duration_time": "0.026122",
      "key_frame": 1,
      "media_type": "audio",
      "nb_samples": 1152,
      "pkt_dts": 7741440,
      "pkt_dts_time": "0.548571",
      "pkt_duration": 368640,
      "pkt_duration_time": "0.026122",
      "pkt_pos": "669732",
      "pkt_size": "418",
      "pts": 7741440,
      "pts_time": "0.548571",
      "sample_fmt": "fltp",
      "stream_index": 0,
      "type": "frame"
    },
    {
      "codec_type": "audio",
      "dts": 8110080,
      "dts_time": "0.574694",
      "duration": 368640,
      "duration_time": "0.026122",
      "flags": "K__",
      "pos": "670150",
      "pts": 8110080,
      "pts_time": "0.574694",
      "size": "418",
      "stream_index": 0,
      "type": "packet"
    },
    {
      "best_effort_timestamp": 8110080,
      "best_effort_timestamp_time": "0.574694",
      "channel_layout": "stereo",
      "channels": 2,
      "duration": 368640,
      "duration_time": "0.026122",
      "key_frame": 1,
      "media_type": "audio",
      "nb_samples": 1152,
      "pkt_dts": 8110080,
      "pkt_dts_time": "0.574694",
      "pkt_duration": 368640,
      "pkt_duration_time": "0.026122",
      "pkt_pos": "670150",
      "pkt_size": "418",
      "pts": 8110080,
      "pts_time": "0.574694",
      "sample_fmt": "fltp",
      "stream_index": 0,
      "type": "frame"
    },
    {
      "codec_type": "audio",
      "dts": 8478720,
      "dts_time": "0.600816",
      "duration": 368640,
      "duration_time": "0.026122",
      "flags": "K__",
      "pos": "670568",
      "pts": 8478720,
      "pts_time": "0.600816",
      "size": "418",
      "stream_index": 0,
      "type": "packet"
    },
    {
      "best_effort_timestamp": 8478720,
      "best_effort_timestamp_time": "0.600816",
      "channel_layout": "stereo",
      "channels": 2,
      "duration": 368640,
      "duration_time": "0.026122",
      "key_frame": 1,
      "media_type": "audio",
      "nb_samples": 1152,
      "pkt_dts": 8478720,
      "pkt_dts_time": "0.600816",
      "pkt_duration": 368640,
      "pkt_duration_time": "0.026122",
      "pkt_pos": "670568",
      "pkt_size": "418",
      "pts": 8478720,
      "pts_time": "0.600816",
      "sample_fmt": "fltp",
      "stream_index": 0,
      "type": "frame"
    },
    {
      "codec_type": "audio",
      "dts": 8847360,
      "dts_time": "0.626939",
      "duration": 368640,
      "duration_time": "0.026122",
      "flags": "K__",
      "pos": "670986",
      "pts": 8847360,
      "pts_time": "0.626939",
      "size": "418",
      "stream_index": 0,
      "type": "packet"
    },
    {
      "best_effort_timestamp": 8847360,
      "best_effort_timestamp_time": "0.626939",
      "channel_layout": "stereo",
      "channels": 2,
      "duration": 368640,
      "duration_time": "0.026122",
      "key_frame": 1,
      "media_type": "audio",
      "nb_samples": 1152,
      "pkt_dts": 8847360,
      "pkt_dts_time": "0.626939",
      "pkt_duration": 368640,
      "pkt_duration_time": "0.026122",
      "pkt_pos": "670986",
      "pkt_size": "418",
      "pts": 8847360,
      "pts_time": "0.626939",
      "sample_fmt": "fltp",
      "stream_index": 0,
      "type": "frame"
    },
    {
      "codec_type": "audio",
      "dts": 9216000,
      "dts_time": "0.653061",
      "duration": 368640,
      "duration_time": "0.026122",
      "flags": "K__",
      "pos": "671404",
      "pts": 9216000,
      "pts_time": "0.653061",
      "size": "417",
      "stream_index": 0,
      "type": "packet"
    },
    {
      "best_effort_timestamp": 9216000,
      "best_effort_timestamp_time": "0.653061",
      "channel_layout": "stereo",
      "channels": 2,
      "duration": 368640,
      "duration_time": "0.026122",
      "key_frame": 1,
      "media_type": "audio",
      "nb_samples": 1152,
      "pkt_dts": 9216000,
      "pkt_dts_time": "0.653061",
      "pkt_duration": 368640,
      "pkt_duration_time": "0.026122",
      "pkt_pos": "671404",
      "pkt_size": "417",
      "pts": 9216000,
      "pts_time": "0.653061",
      "sample_fmt": "fltp",
      "stream_index": 0,
      "type": "frame"
    },
    {
      "codec_type": "audio",
      "dts": 9584640,
      "dts_time": "0.679184",
      "duration": 368640,
      "duration_time": "0.026122",
      "flags": "K__",
      "pos": "671821",
      "pts": 9584640,
      "pts_time": "0.679184",
      "size": "418",
      "stream_index": 0,
      "type": "packet"
    },
    {
      "best_effort_timestamp": 9584640,
      "best_effort_timestamp_time": "0.679184",
      "channel_layout": "stereo",
      "channels": 2,
      "duration": 368640,
      "duration_time": "0.026122",
      "key_frame": 1,
      "media_type": "audio",
      "nb_samples": 1152,
      "pkt_dts": 9584640,
      "pkt_dts_time": "0.679184",
      "pkt_duration": 368640,
      "pkt_duration_time": "0.026122",
      "pkt_pos": "671821",
      "pkt_size": "418",
      "pts": 9584640,
      "pts_time": "0.679184",
      "sample_fmt": "fltp",
      "stream_index": 0,
      "type": "frame"
    },
    {
      "codec_type": "audio",
      "dts": 9953280,
      "dts_time": "0.705306",
      "duration": 368640,
      "duration_time": "0.026122",
      "flags": "K__",
      "pos": "672239",
      "pts": 9953280,
      "pts_time": "0.705306",
      "size": "418",
      "stream_index": 0,
      "type": "packet"
    },
    {
      "best_effort_timestamp": 9953280,
      "best_effort_timestamp_time": "0.705306",
      "channel_layout": "stereo",
      "channels": 2,
      "duration": 368640,
      "duration_time": "0.026122",
      "key_frame": 1,
      "media_type": "audio",
      "nb_samples": 1152,
      "pkt_dts": 9953280,
      "pkt_dts_time": "0.705306",
      "pkt_duration": 368640,
      "pkt_duration_time": "0.026122",
      "pkt_pos": "672239",
      "pkt_size": "418",
      "pts": 9953280,
      "pts_time": "0.705306",
      "sample_fmt": "fltp",
      "stream_index": 0,
      "type": "frame"
    },
    {
      "codec_type": "audio",
      "dts": 10321920,
      "dts_time": "0.731429",
      "duration": 368640,
      "duration_time": "0.026122",
      "flags": "K__",
      "pos": "672657",
      "pts": 10321920,
      "pts_time": "0.731429",
      "size": "418",
      "stream_index": 0,
      "type": "packet"
    },
    {
      "best_effort_timestamp": 10321920,
      "best_effort_timestamp_time": "0.731429",
      "channel_layout": "stereo",
      "channels": 2,
      "duration": 368640,
      "duration_time": "0.026122",
      "key_frame": 1,
      "media_type": "audio",
      "nb_samples": 1152,
      "pkt_dts": 10321920,
      "pkt_dts_time": "0.731429",
      "pkt_duration": 368640,
      "pkt_duration_time": "0.026122",
      "pkt_pos": "672657",
      "pkt_size": "418",
      "pts": 10321920,
      "pts_time": "0.731429",
      "sample_fmt": "fltp",
      "stream_index": 0,
      "type": "frame"
    },
    {
      "codec_type": "audio",
      "dts": 10690560,
      "dts_time": "0.757551",
      "duration": 368640,
      "duration_time": "0.026122",
      "flags": "K__",
      "pos": "673075",
      "pts": 10690560,
      "pts_time": "0.757551",
      "size": "418",
      "stream_index": 0,
      "type": "packet"
    },
    {
      "best_effort_timestamp": 10690560,
      "best_effort_timestamp_time": "0.757551",
      "channel_layout": "stereo",
      "channels": 2,
      "duration": 368640,
      "duration_time": "0.026122",
      "key_frame": 1,
      "media_type": "audio",
      "nb_samples": 1152,
      "pkt_dts": 10690560,
      "pkt_dts_time": "0.757551",
      "pkt_duration": 368640,
      "pkt_duration_time": "0.026122",
      "pkt_pos": "673075",
      "pkt_size": "418",
      "pts": 10690560,
      "pts_time": "0.757551",
      "sample_fmt": "fltp",
      "stream_index": 0,
      "type": "frame"
    },
    {
      "codec_type": "audio",
      "dts": 11059200,
      "dts_time": "0.783673",
      "duration": 368640,
      "duration_time": "0.026122",
      "flags": "K__",
      "pos": "673493",
      "pts": 11059200,
      "pts_time": "0.783673",
      "size": "418",
      "stream_index": 0,
      "type": "packet"
    },
    {
      "best_effort_timestamp": 11059200,
      "best_effort_timestamp_time": "0.783673",
      "channel_layout": "stereo",
      "channels": 2,
      "duration": 368640,
      "duration_time": "0.026122",
      "key_frame": 1,
      "media_type": "audio",
      "nb_samples": 1152,
      "pkt_dts": 11059200,
      "pkt_dts_time": "0.783673",
      "pkt_duration": 368640,
      "pkt_duration_time": "0.026122",
      "pkt_pos": "673493",
      "pkt_size": "418",
      "pts": 11059200,
      "pts_time": "0.783673",
      "sample_fmt": "fltp",
      "stream_index": 0,
      "type": "frame"
    },
    {
      "codec_type": "audio",
      "dts": 11427840,
      "dts_time": "0.809796",
      "duration": 368640,
      "duration_time": "0.026122",
      "flags": "K__",
      "pos": "673911",
      "pts": 11427840,
      "pts_time": "0.809796",
      "size": "418",
      "stream_index": 0,
      "type": "packet"
    },
    {
      "best_effort_timestamp": 11427840,
      "best_effort_timestamp_time": "0.809796",
      "channel_layout": "stereo",
      "channels": 2,
      "duration": 368640,
      "duration_time": "0.026122",
      "key_frame": 1,
      "media_type": "audio",
      "nb_samples": 1152,
      "pkt_dts": 11427840,
      "pkt_dts_time": "0.809796",
      "pkt_duration": 368640,
      "pkt_duration_time": "0.026122",
      "pkt_pos": "673911",
      "pkt_size": "418",
      "pts": 11427840,
      "pts_time": "0.809796",
      "sample_fmt": "fltp",
      "stream_index": 0,
      "type": "frame"
    },
    {
      "codec_type": "audio",
      "dts": 11796480,
      "dts_time": "0.835918",
      "duration": 368640,
      "duration_time": "0.026122",
      "flags": "K__",
      "pos": "674329",
      "pts": 11796480,
      "pts_time": "0.835918",
      "size": "418",
      "stream_index": 0,
      "type": "packet"
    },
    {
      "best_effort_timestamp": 11796480,
      "best_effort_timestamp_time": "0.835918",
      "channel_layout": "stereo",
      "channels": 2,
      "duration": 368640,
      "duration_time": "0.026122",
      "key_frame": 1,
      "media_type": "audio",
      "nb_samples": 1152,
      "pkt_dts": 11796480,
      "pkt_dts_time": "0.835918",
      "pkt_duration": 368640,
      "pkt_duration_time": "0.026122",
      "pkt_pos": "674329",
      "pkt_size": "418",
      "pts": 11796480,
      "pts_time": "0.835918",
      "sample_fmt": "fltp",
      "stream_index": 0,
      "type": "frame"
    },
    {
      "codec_type": "audio",
      "dts": 12165120,
      "dts_time": "0.862041",
      "duration": 368640,
      "duration_time": "0.026122",
      "flags": "K__",
      "pos": "674747",
      "pts": 12165120,
      "pts_time": "0.862041",
      "size": "418",
      "stream_index": 0,
      "type": "packet"
    },
    {
      "best_effort_timestamp": 12165120,
      "best_effort_timestamp_time": "0.862041",
      "channel_layout": "stereo",
      "channels": 2,
      "duration": 368640,
      "duration_time": "0.026122",
      "key_frame": 1,
      "media_type": "audio",
      "nb_samples": 1152,
      "pkt_dts": 12165120,
      "pkt_dts_time": "0.862041",
      "pkt_duration": 368640,
      "pkt_duration_time": "0.026122",
      "pkt_pos": "674747",
      "pkt_size": "418",
      "pts": 12165120,
      "pts_time": "0.862041",
      "sample_fmt": "fltp",
      "stream_index": 0,
      "type": "frame"
    },
    {
      "codec_type": "audio",
      "dts": 12533760,
      "dts_time": "0.888163",
      "duration": 368640,
      "duration_time": "0.026122",
      "flags": "K__",
      "pos": "675165",
      "pts": 12533760,
      "pts_time": "0.888163",
      "size": "418",
      "stream_index": 0,
      "type": "packet"
    },
    {
      "best_effort_timestamp": 12533760,
      "best_effort_timestamp_time": "0.888163",
      "channel_layout": "stereo",
      "channels": 2,
      "duration": 368640,
      "duration_time": "0.026122",
      "key_frame": 1,
      "media_type": "audio",
      "nb_samples": 1152,
      "pkt_dts": 12533760,
      "pkt_dts_time": "0.888163",
      "pkt_duration": 368640,
      "pkt_duration_time": "0.026122",
      "pkt_pos": "675165",
      "pkt_size": "418",
      "pts": 12533760,
      "pts_time": "0.888163",
      "sample_fmt": "fltp",
      "stream_index": 0,
      "type": "frame"
    },
    {
      "codec_type": "audio",
      "dts": 12902400,
      "dts_time": "0.914286",
      "duration": 368640,
      "duration_time": "0.026122",
      "flags": "K__",
      "pos": "675583",
      "pts": 12902400,
      "pts_time": "0.914286",
      "size": "418",
      "stream_index": 0,
      "type": "packet"
    },
    {
      "best_effort_timestamp": 12902400,
      "best_effort_timestamp_time": "0.914286",
      "channel_layout": "stereo",
      "channels": 2,
      "duration": 368640,
      "duration_time": "0.026122",
      "key_frame": 1,
      "media_type": "audio",
      "nb_samples": 1152,
      "pkt_dts": 12902400,
      "pkt_dts_time": "0.914286",
      "pkt_duration": 368640,
      "pkt_duration_time": "0.026122",
      "pkt_pos": "675583",
      "pkt_size": "418",
      "pts": 12902400,
      "pts_time": "0.914286",
      "sample_fmt": "fltp",
      "stream_index": 0,
      "type": "frame"
    },
    {
      "codec_type": "audio",
      "dts": 13271040,
      "dts_time": "0.940408",
      "duration": 368640,
      "duration_time": "0.026122",
      "flags": "K__",
      "pos": "676001",
      "pts": 13271040,
      "pts_time": "0.940408",
      "size": "418",
      "stream_index": 0,
      "type": "packet"
    },
    {
      "best_effort_timestamp": 13271040,
      "best_effort_timestamp_time": "0.940408",
      "channel_layout": "stereo",
      "channels": 2,
      "duration": 368640,
      "duration_time": "0.026122",
      "key_frame": 1,
      "media_type": "audio",
      "nb_samples": 1152,
      "pkt_dts": 13271040,
      "pkt_dts_time": "0.940408",
      "pkt_duration": 368640,
      "pkt_duration_time": "0.026122",
      "pkt_pos": "676001",
      "pkt_size": "418",
      "pts": 13271040,
      "pts_time": "0.940408",
      "sample_fmt": "fltp",
      "stream_index": 0,
      "type": "frame"
    },
    {
      "codec_type": "audio",
      "dts": 13639680,
      "dts_time": "0.966531",
      "duration": 368640,
      "duration_time": "0.026122",
      "flags": "K__",
      "pos": "676419",
      "pts": 13639680,
      "pts_time": "0.966531",
      "size": "418",
      "stream_index": 0,
      "type": "packet"
    },
    {
      "best_effort_timestamp": 13639680,
      "best_effort_timestamp_time": "0.966531",
      "channel_layout": "stereo",
      "channels": 2,
      "duration": 368640,
      "duration_time": "0.026122",
      "key_frame": 1,
      "media_type": "audio",
      "nb_samples": 1152,
      "pkt_dts": 13639680,
      "pkt_dts_time": "0.966531",
      "pkt_duration": 368640,
      "pkt_duration_time": "0.026122",
      "pkt_pos": "676419",
      "pkt_size": "418",
      "pts": 13639680,
      "pts_time": "0.966531",
      "sample_fmt": "fltp",
      "stream_index": 0,
      "type": "frame"
    },
    {
      "codec_type": "audio",
      "dts": 14008320,
      "dts_time": "0.992653",
      "duration": 368640,
      "duration_time": "0.026122",
      "flags": "K__",
      "pos": "676837",
      "pts": 14008320,
      "pts_time": "0.992653",
      "size": "418",
      "stream_index": 0,
      "type": "packet"
    },
    {
      "best_effort_timestamp": 14008320,
      "best_effort_timestamp_time": "0.992653",
      "channel_layout": "stereo",
      "channels": 2,
      "duration": 368640,
      "duration_time": "0.026122",
      "key_frame": 1,
      "media_type": "audio",
      "nb_samples": 1152,
      "pkt_dts": 14008320,
      "pkt_dts_time": "0.992653",
      "pkt_duration": 368640,
      "pkt_duration_time": "0.026122",
      "pkt_pos": "676837",
      "pkt_size": "418",
      "pts": 14008320,
      "pts_time": "0.992653",
      "sample_fmt": "fltp",
      "stream_index": 0,
      "type": "frame"
    },
    {
      "codec_type": "audio",
      "dts": 14376960,
      "dts_time": "1.018776",
      "duration": 368640,
      "duration_time": "0.026122",
      "flags": "K__",
      "pos": "677255",
      "pts": 14376960,
      "pts_time": "1.018776",
      "side_data_list": [
        {
          "discard_padding": 875,
          "discard_reason": 0,
          "side_data_type": "Skip Samples",
          "skip_reason": 0,
          "skip_samples": 0
        }
      ],
      "size": "418",
      "stream_index": 0,
      "type": "packet"
    },
    {
      "best_effort_timestamp": 14376960,
      "best_effort_timestamp_time": "1.018776",
      "channel_layout": "stereo",
      "channels": 2,
      "duration": 88640,
      "duration_time": "0.006281",
      "key_frame": 1,
      "media_type": "audio",
      "nb_samples": 277,
      "pkt_dts": 14376960,
      "pkt_dts_time": "1.018776",
      "pkt_duration": 88640,
      "pkt_duration_time": "0.006281",
      "pkt_pos": "677255",
      "pkt_size": "418",
      "pts": 14376960,
      "pts_time": "1.018776",
      "sample_fmt": "fltp",
      "stream_index": 0,
      "type": "frame"
    }
  ],
  "programs": [],
  "streams": [
    {
      "avg_frame_rate": "0/0",
      "bit_rate": "128000",
      "bits_per_sample": 0,
      "channel_layout": "stereo",
      "channels": 2,
      "codec_long_name": "MP3 (MPEG audio layer 3)",
      "codec_name": "mp3",
      "codec_tag": "0x0000",
      "codec_tag_string": "[0][0][0][0]",
      "codec_type": "audio",
      "disposition": {
        "attached_pic": 0,
        "captions": 0,
        "clean_effects": 0,
        "comment": 0,
        "default": 0,
        "dependent": 0,
        "descriptions": 0,
        "dub": 0,
        "forced": 0,
        "hearing_impaired": 0,
        "karaoke": 0,
        "lyrics": 0,
        "metadata": 0,
        "original": 0,
        "still_image": 0,
        "timed_thumbnails": 0,
        "visual_impaired": 0
      },
      "duration": "1.044898",
      "duration_ts": 14745600,
      "index": 0,
      "initial_padding": 0,
      "nb_read_frames": "40",
      "nb_read_packets": "40",
      "r_frame_rate": "0/0",
      "sample_fmt": "fltp",
      "sample_rate": "44100",
      "start_pts": 353600,
      "start_time": "0.025057",
      "tags": {
        "encoder": "Lavc60.3."
      },
      "time_base": "1/14112000"
    },
    {
      "avg_frame_rate": "0/0",
      "closed_captions": 0,
      "codec_long_name": "PNG (Portable Network Graphics) image",
      "codec_name": "png",
      "codec_tag": "0x0000",
      "codec_tag_string": "[0][0][0][0]",
      "codec_type": "video",
      "coded_height": 500,
      "coded_width": 888,
      "color_range": "pc",
      "display_aspect_ratio": "222:125",
      "disposition": {
        "attached_pic": 1,
        "captions": 0,
        "clean_effects": 0,
        "comment": 0,
        "default": 0,
        "dependent": 0,
        "descriptions": 0,
        "dub": 0,
        "forced": 0,
        "hearing_impaired": 0,
        "karaoke": 0,
        "lyrics": 0,
        "metadata": 0,
        "original": 0,
        "still_image": 0,
        "timed_thumbnails": 0,
        "visual_impaired": 0
      },
      "duration": "1.044900",
      "duration_ts": 94041,
      "film_grain": 0,
      "has_b_frames": 0,
      "height": 500,
      "index": 1,
      "level": -99,
      "nb_read_frames": "1",
      "nb_read_packets": "1",
      "pix_fmt": "rgb24",
      "r_frame_rate": "90000/1",
      "refs": 1,
      "sample_aspect_ratio": "1:1",
      "start_pts": 2255,
      "start_time": "0.025056",
      "tags": {
        "comment": "32x32 pixels 'file icon'"
      },
      "time_base": "1/90000",
      "width": 888
    }
  ]
}
